PathFileType        4      (X/Y/Z)      C:\Users\pc\Desktop\IMUTRC\Sujet_06\Sujet_06_velo_100.trc         
DataRate	CameraRate	NumFrames	NumMarkers	Units	OrigDataRate	OrigDataStartFrame	OrigNumFrames
60.0	60.0	4	64	mm	60.0	700	933
Frame#	Time	pHipOrigin			pRightASI			pLeftASI			pRightCSI			pLeftCSI			pRightIschialTub			pLeftIschialTub			pSacrum			pL5SpinalProcess			pL3SpinalProcess			pT12SpinalProcess			pIJ			pT4SpinalProcess			pT8SpinalProcess			pPX			pC7SpinalProcess			pTopOfHead			pRightAuricularis			pLeftAuricularis			pBackOfHead			pRightAcromion			pLeftAcromion			pRightArmLatEpicondyle			pRightArmMedEpicondyle			pLeftArmLatEpicondyle			pLeftArmMedEpicondyle			pRightUlnarStyloid			pRightRadialStyloid			pRightOlecranon			pLeftUlnarStyloid			pLeftRadialStyloid			pLeftOlecranon			pRightTopOfHand			pRightPinky			pRightBallHand			pLeftTopOfHand			pLeftPinky			pLeftBallHand			pRightGreaterTrochanter			pRightKneeLatEpicondyle			pRightKneeMedEpicondyle			pRightPatella			pLeftGreaterTrochanter			pLeftKneeLatEpicondyle			pLeftKneeMedEpicondyle			pLeftPatella			pRightTibialTub			pRightLatMalleolus			pRightMedMalleolus			pLeftTibialTub			pLeftLatMalleolus			pLeftMedMalleolus			pRightHeelFoot			pRightFirstMetatarsal			pRightFifthMetatarsal			pRightPivotFoot			pRightHeelCenter			pRightToe			pLeftHeelFoot			pLeftFirstMetatarsal			pLeftFifthMetatarsal			pLeftPivotFoot			pLeftHeelCenter			pLeftToe			
		X1	Y1	Z1	X2	Y2	Z2	X3	Y3	Z3	X4	Y4	Z4	X5	Y5	Z5	X6	Y6	Z6	X7	Y7	Z7	X8	Y8	Z8	X9	Y9	Z9	X10	Y10	Z10	X11	Y11	Z11	X12	Y12	Z12	X13	Y13	Z13	X14	Y14	Z14	X15	Y15	Z15	X16	Y16	Z16	X17	Y17	Z17	X18	Y18	Z18	X19	Y19	Z19	X20	Y20	Z20	X21	Y21	Z21	X22	Y22	Z22	X23	Y23	Z23	X24	Y24	Z24	X25	Y25	Z25	X26	Y26	Z26	X27	Y27	Z27	X28	Y28	Z28	X29	Y29	Z29	X30	Y30	Z30	X31	Y31	Z31	X32	Y32	Z32	X33	Y33	Z33	X34	Y34	Z34	X35	Y35	Z35	X36	Y36	Z36	X37	Y37	Z37	X38	Y38	Z38	X39	Y39	Z39	X40	Y40	Z40	X41	Y41	Z41	X42	Y42	Z42	X43	Y43	Z43	X44	Y44	Z44	X45	Y45	Z45	X46	Y46	Z46	X47	Y47	Z47	X48	Y48	Z48	X49	Y49	Z49	X50	Y50	Z50	X51	Y51	Z51	X52	Y52	Z52	X53	Y53	Z53	X54	Y54	Z54	X55	Y55	Z55	X56	Y56	Z56	X57	Y57	Z57	X58	Y58	Z58	X59	Y59	Z59	X60	Y60	Z60	X61	Y61	Z61	X62	Y62	Z62	X63	Y63	Z63	X64	Y64	Z64	
700	11.65	0.0	1250.03612	7.654263665882883E-14	36.62689000000002	1327.11849	129.91697000000008	83.84621999999999	1339.75285	-95.33199999999992	4.466690000000013	1388.12076	108.09399000000009	44.284079999999996	1398.84082	-81.80429999999991	-59.343219999999995	1200.26439	34.457350000000076	-39.434520000000006	1205.62442	-60.491789999999924	-56.40796	1271.22101	-10.592439999999915	-23.73729	1360.93774	0.6381000000000863	22.58871	1470.1803	12.889600000000087	66.74516	1569.46852	22.97157000000009	309.7333	1656.50524	74.14711000000005	179.30584	1731.67331	45.04980000000008	120.85597	1662.63099	33.81925000000008	233.79951	1559.00369	59.726070000000064	221.67562	1778.38216	54.74890000000008	500.01445	1816.79573	47.98505000000005	405.44816	1793.18606	129.53412000000006	391.28236	1796.12132	-14.421039999999937	386.43281	1850.23212	59.853690000000064	191.42973000000003	1753.87916	230.22615000000008	274.38261	1743.54195	-115.36831999999991	338.4477600000001	1491.62043	235.71380000000005	326.70673	1482.94228	174.45629000000005	419.99682	1497.8738	-166.28861999999998	391.79284	1469.03172	-117.92070999999996	520.81648	1312.69745	220.01657000000003	544.42614	1343.58144	185.43160000000003	318.41145	1474.51938	224.73850000000004	619.97708	1342.05	-163.99147	630.18666	1360.42726	-116.38926999999998	398.93955	1477.45463	-167.82005999999998	694.76229	1295.97925	172.79723	623.80567	1282.06869	210.70032	558.08146	1303.3812	202.78789000000003	784.47902	1359.27868	-87.16434000000001	726.79486	1337.83855	-140.76466	657.24206	1336.30711	-141.27514	-4.083829999999982	1208.17682	141.9132400000001	262.89682	941.06854	102.73395000000002	276.04167	956.38291	31.77733000000002	296.71608	978.46114	76.18903000000002	49.51648999999998	1248.50468	-144.2103899999999	362.31266	1033.97576	-125.06741999999998	356.56977	1021.9795	-52.451749999999976	379.41372	1062.81784	-78.86904999999997	316.11429	916.94839	69.80804000000002	215.16701	559.48528	106.43493	217.71941	557.57098	47.47457000000001	374.56417	978.71638	-84.99479999999998	84.73955999999998	746.19307	-120.47310999999998	83.59097999999999	746.06546	-61.38512999999996	163.99147	484.06197	71.08424000000001	322.24004	453.05035	64.19276999999998	308.4571	457.00657	139.23322	336.40584	450.88082	104.77586999999998	200.49073	478.95718	78.10333	409.91485	436.5874	119.06928999999997	-6.38099000000001	735.21777	-86.90909999999995	77.20999	603.25888	-45.94312999999997	74.27472999999999	599.30266	-122.13216999999997	87.03671999999999	582.83971	-82.44239999999998	14.80389999999999	704.33377	-86.14337999999995	126.59885999999999	517.7536	-80.52810999999998	
701	11.667	0.0	1250.03612	7.654263665882883E-14	37.52023000000001	1327.11849	129.6617300000001	82.95287999999998	1339.88047	-95.97009999999993	5.104790000000014	1388.12076	108.09399000000009	43.390739999999994	1398.84082	-82.18715999999992	-58.960359999999994	1200.26439	34.96783000000008	-39.81738000000001	1205.4968	-60.10892999999992	-56.40796	1271.22101	-10.209589999999915	-23.86491	1360.81012	0.7657200000000862	22.33347	1470.1803	12.506740000000088	66.36231	1569.59614	22.20585000000009	309.60568	1657.27095	71.46710000000006	178.79536	1732.05617	43.135500000000086	120.34549	1662.88623	32.415430000000086	233.79951	1559.51417	57.81178000000006	221.16514	1778.89264	52.19651000000008	499.24873	1817.94431	44.02884000000005	405.19292	1794.58988	126.08838000000007	390.38902	1796.6318	-17.739149999999935	385.79471	1851.12546	56.152720000000066	192.32307000000003	1755.28297	227.92899000000008	272.21307	1744.05243	-118.17594999999992	338.83062000000007	1492.51377	235.84142000000006	326.57911	1483.0699	174.71153000000007	419.74158	1499.27762	-166.67147999999997	391.92046	1470.8184	-117.79308999999996	520.306	1312.56983	221.29276000000002	543.91566	1343.07096	186.32493000000002	318.66669	1475.28509	225.12136000000007	619.59422	1342.94334	-163.48099	629.54856	1361.3206	-115.75116999999999	398.93955	1479.11369	-167.94767999999996	694.12419	1294.95829	173.56295	623.16757	1281.43059	211.59366	557.44336	1302.87072	203.93647000000004	783.96854	1359.02344	-86.14338000000001	726.15676	1337.96617	-139.99894	656.60396	1336.94521	-140.63704	-6.380989999999982	1207.79396	142.29610000000008	244.51957	924.98844	107.07303000000003	259.19585	939.15424	36.11641000000003	280.7636	960.21151	80.65572000000003	49.771729999999984	1250.29136	-144.08276999999993	373.92607	1053.88446	-122.13216999999997	368.31079	1041.63295	-49.516489999999976	389.11282	1083.61987	-75.80616999999997	299.14085	900.48543	74.65759000000001	200.61835	541.87375	107.20065	204.19171	540.34231	48.24029000000001	385.53947	998.62507	-81.93191999999999	95.07675999999998	767.25034	-120.21786999999998	93.41770999999999	767.12273	-61.12988999999997	146.37993	469.25807	70.57376000000001	302.96945	430.97212	61.51274999999999	289.82461	433.65214	136.68082	317.26287	427.01591	101.84060999999998	182.62396	462.23898	77.08237	389.87854	409.02152	115.11307999999998	4.33906999999999	750.91501	-87.67480999999995	95.07676	623.42281	-47.72980999999998	93.16246999999998	620.35993	-124.04645999999997	106.43492999999998	604.0246	-84.48431999999997	27.31063999999999	721.17959	-87.16433999999995	149.69805	541.74613	-83.08049999999999	
702	11.683	0.0	1250.03612	7.654263665882883E-14	38.158330000000014	1327.24611	129.40650000000008	82.18715999999999	1340.00809	-96.48057999999993	5.487650000000014	1388.24838	107.96637000000008	42.62501999999999	1398.96844	-82.44239999999992	-58.705119999999994	1200.13677	35.35069000000008	-40.07262000000001	1205.4968	-59.85368999999992	-56.53558	1271.09339	-9.826729999999914	-24.12015	1360.81012	0.8933400000000864	21.95061	1470.30792	12.251500000000087	65.85183	1569.72376	21.44013000000009	309.22282	1657.90905	68.78708000000006	178.02965	1732.43903	41.22120000000009	119.70739	1663.14147	31.13924000000009	233.54427	1560.02465	55.897480000000066	220.39943	1779.2755	49.89935000000008	498.48301	1819.2205	40.45548000000005	404.68244	1796.12132	122.89788000000007	389.49568	1797.14228	-20.929649999999935	384.77375	1852.0188	52.706980000000065	193.08878000000004	1756.43155	225.75946000000008	269.66068	1744.94577	-120.98358999999992	339.21348000000006	1493.53473	236.60714000000004	326.32387	1482.94228	175.86011000000005	419.48634	1501.0643	-166.67147999999997	392.30332	1473.11556	-117.15498999999996	519.92314	1312.44221	223.20706000000004	543.40518	1342.56048	187.85637000000003	318.7943	1476.05081	226.26994000000005	618.95612	1344.09192	-162.58765	628.91046	1362.34156	-114.85783999999998	398.93955	1481.15561	-167.69243999999998	693.35847	1293.68209	174.71153	622.40185	1280.53725	212.99748	556.80527	1302.48786	205.46791000000002	783.20282	1358.51296	-84.99480000000001	725.39104	1338.22141	-138.97798	655.83824	1337.71093	-139.7437	-8.678149999999983	1207.92158	142.67896000000007	227.16328	911.8436	112.81592000000003	243.49861	924.7332	41.986920000000026	265.70446	944.89713	86.65386000000002	50.154589999999985	1252.07803	-143.8275299999999	384.26327	1073.53791	-118.17594999999997	378.52038	1061.15879	-45.68788999999999	397.28049	1104.29428	-71.84995999999997	282.55028	886.44725	81.16620000000003	182.62396	527.83557	108.73208	187.72875	526.81461	49.77173000000001	395.74906	1018.53377	-77.97570999999999	107.20064999999998	785.24474	-119.70738999999998	104.90348999999999	785.11712	-60.61940999999997	124.81218000000001	459.1761	70.44614000000001	278.8493	411.82915	59.215599999999995	266.34256	413.10535	134.51129	293.14272	405.83102	99.28821999999998	160.67335	449.73224	76.57189000000001	364.60982	382.98707	111.53971999999999	17.611529999999988	762.01793	-88.56814999999996	117.41023	641.03435	-50.02696999999997	116.38926999999998	639.37529	-126.47123999999997	130.55507	623.29519	-87.03671999999997	42.752639999999985	734.06919	-88.31290999999996	178.66774	564.33483	-86.39862	
703	11.7	0.0	1250.03612	7.654263665882883E-14	38.285950000000014	1327.37373	129.27888000000007	81.67667999999999	1340.13571	-96.73581999999993	5.487650000000014	1388.24838	107.96637000000008	41.98691999999999	1398.96844	-82.57001999999991	-58.44987999999999	1200.00915	35.47831000000008	-40.20024000000001	1205.36918	-59.85368999999992	-56.6632	1270.96577	-9.699109999999914	-24.37539	1360.81012	1.0209600000000862	21.56775	1470.30792	12.123880000000089	65.46897	1569.85138	20.929650000000088	309.0952	1658.29191	67.00040000000006	177.64679	1732.56665	39.945000000000086	119.32453	1663.26909	30.245900000000088	233.28903	1560.27989	54.62128000000006	220.01657	1779.53074	48.24029000000008	497.97253	1820.11384	37.64785000000005	404.4272	1797.14228	120.60073000000007	388.85758	1797.26989	-23.354429999999937	384.26327	1852.6569	50.02697000000006	193.85450000000003	1757.32489	224.1004000000001	267.74638	1745.07339	-123.02549999999991	339.4687200000001	1494.17283	237.75572000000005	326.32387	1482.81466	177.13631000000007	419.2311	1502.08526	-166.28861999999998	392.43094	1474.51938	-116.38926999999995	519.54028	1312.44221	225.37660000000002	543.14994	1342.05	189.64305000000002	318.92192	1476.43367	227.67376000000004	618.57326	1344.6024	-161.43907	628.39998	1362.72442	-113.70925999999999	398.93955	1482.30418	-167.18195999999998	692.84799	1292.66114	176.37059	621.89137	1279.77153	214.78415	556.42241	1302.105	207.38220000000004	782.69234	1357.74724	-83.46336000000001	724.88057	1337.96617	-137.57416	655.32776	1338.09379	-138.59512	-10.847679999999983	1208.17682	143.0618200000001	212.86986000000002	902.39973	118.30357000000002	230.73663	914.01314	47.60219000000003	253.0701	933.66659	92.39675000000003	50.665069999999986	1253.73709	-143.44467999999992	392.68618	1091.5323	-113.32639999999998	386.68805	1078.89794	-40.83833999999999	403.66148	1122.79916	-66.87277999999998	268.63972	875.34433	87.41958000000002	163.22575	518.00884	110.90162000000001	169.47912	517.1155	52.19651000000001	404.93768	1036.65578	-72.99853999999999	121.49406999999998	798.00672	-118.43118999999997	118.55880999999998	797.62386	-59.34321999999997	101.84061000000001	453.81607	71.21186000000002	252.55962	397.28049	57.81177999999999	240.43574000000004	397.28049	133.23509	266.47018	389.36806	97.62916	137.06368	442.07505	76.82713000000001	336.66108	361.67456	108.98731999999998	33.94686999999998	767.6332	-88.44052999999995	143.06182	654.43443	-51.813649999999974	142.67895999999996	654.43443	-128.1303	157.73809	638.73719	-88.95100999999997	61.25750999999999	741.98162	-88.56814999999997	210.44508	583.60543	-89.20624999999998	
